<svg xmlns="http://www.w3.org/2000/svg" xmlns:xlink="http://www.w3.org/1999/xlink" width="2573" height="686" viewBox="0 0 2573 686">
  <defs>
    <clipPath id="clip-아트보드_13">
      <rect width="2573" height="686"/>
    </clipPath>
  </defs>
  <g id="아트보드_13" data-name="아트보드 – 13" clip-path="url(#clip-아트보드_13)">
    <path id="빼기_14" data-name="빼기 14" d="M-1791.5-10795a337.913,337.913,0,0,1-67.616-6.816,333.864,333.864,0,0,1-62.977-19.549,335.518,335.518,0,0,1-56.99-30.934,337.909,337.909,0,0,1-49.653-40.967,337.957,337.957,0,0,1-40.968-49.653,335.527,335.527,0,0,1-30.933-56.99,333.8,333.8,0,0,1-19.549-62.977A337.972,337.972,0,0,1-2127-11130.5a337.972,337.972,0,0,1,6.816-67.614,333.8,333.8,0,0,1,19.549-62.977,335.561,335.561,0,0,1,30.933-56.991,338.031,338.031,0,0,1,40.968-49.653,337.965,337.965,0,0,1,49.653-40.967,335.546,335.546,0,0,1,56.99-30.934,333.864,333.864,0,0,1,62.977-19.549A337.917,337.917,0,0,1-1791.5-11466a337.909,337.909,0,0,1,67.615,6.816,333.848,333.848,0,0,1,62.976,19.549,335.518,335.518,0,0,1,56.989,30.934,337.969,337.969,0,0,1,49.653,40.967,338.025,338.025,0,0,1,40.967,49.653,335.543,335.543,0,0,1,30.933,56.991,333.786,333.786,0,0,1,19.549,62.977A337.978,337.978,0,0,1-1456-11130.5a337.978,337.978,0,0,1-6.816,67.614,333.786,333.786,0,0,1-19.549,62.977,335.526,335.526,0,0,1-30.933,56.99,337.958,337.958,0,0,1-40.967,49.653,337.907,337.907,0,0,1-49.653,40.967,335.49,335.49,0,0,1-56.989,30.934,333.848,333.848,0,0,1-62.976,19.549A337.9,337.9,0,0,1-1791.5-10795Zm-87.835-162.935a86.635,86.635,0,0,0,2.627,16.618,86.5,86.5,0,0,0,5.626,15.418,87.4,87.4,0,0,0,8.31,13.9,87.987,87.987,0,0,0,10.682,12.077,87.974,87.974,0,0,0,12.736,9.938,87.442,87.442,0,0,0,14.474,7.485,87.445,87.445,0,0,0,32.911,6.365,87.454,87.454,0,0,0,32.914-6.365,87.881,87.881,0,0,0,14.477-7.485,88.862,88.862,0,0,0,12.736-9.938,88.3,88.3,0,0,0,10.679-12.08,87.221,87.221,0,0,0,8.311-13.905,86.46,86.46,0,0,0,5.626-15.418,86.841,86.841,0,0,0,2.627-16.618,97.268,97.268,0,0,1-13.484.944,96.81,96.81,0,0,1-18.348-1.759,96.032,96.032,0,0,1-17.8-5.274,95.848,95.848,0,0,1-16.71-8.794,96.762,96.762,0,0,1-15.067-12.308c-2.082-2.082-4.1-4.288-5.988-6.558-1.853,2.227-3.867,4.434-5.985,6.558a96.943,96.943,0,0,1-15.07,12.308,95.478,95.478,0,0,1-16.71,8.794,95.894,95.894,0,0,1-17.8,5.274,96.806,96.806,0,0,1-18.347,1.759,96.742,96.742,0,0,1-13.424-.938Zm134.9-164.172a46.375,46.375,0,0,1-4.4,15.853,46.738,46.738,0,0,1-9.32,13.035,46.716,46.716,0,0,1-13.165,9.151,46.452,46.452,0,0,1-15.939,4.189,174.953,174.953,0,0,0,7.476,21.855,199.211,199.211,0,0,0,18.854,34.8,221.862,221.862,0,0,0,26.966,32.614,221.628,221.628,0,0,0,32.612,26.963,199.019,199.019,0,0,0,34.807,18.854,167.745,167.745,0,0,0,35.219,10.452c9.426,1.663,25.752,1.792,30.531,1.792h.02c1.883,0,3.159-.019,3.177-.031.018-.035.09-5.615-.1-12.563-.314-11.5-1.078-17.855-1.663-21.162a167.812,167.812,0,0,0-10.448-35.222,199.365,199.365,0,0,0-18.854-34.807,221.945,221.945,0,0,0-26.966-32.612,222.045,222.045,0,0,0-32.612-26.966,199.381,199.381,0,0,0-34.8-18.851A175.314,175.314,0,0,0-1744.433-11122.106Zm-93.24-.5a174.432,174.432,0,0,0-23.271,7.848,199.271,199.271,0,0,0-34.807,18.854,221.953,221.953,0,0,0-32.612,26.963,222.091,222.091,0,0,0-26.966,32.612,199.582,199.582,0,0,0-18.854,34.807,167.983,167.983,0,0,0-10.448,35.222c-1.056,5.976-1.488,14.809-1.663,21.165-.192,7.084-.119,12.521-.1,12.563.018.01,1.121.028,3.162.028,4.789,0,21.148-.129,30.563-1.792a167.939,167.939,0,0,0,35.224-10.452,199.073,199.073,0,0,0,34.8-18.854,221.6,221.6,0,0,0,32.612-26.963,221.731,221.731,0,0,0,26.966-32.611,199.285,199.285,0,0,0,18.854-34.8,174.967,174.967,0,0,0,7.528-22.045,46.351,46.351,0,0,1-15.389-4.647,46.762,46.762,0,0,1-12.633-9.31,46.771,46.771,0,0,1-8.869-12.966,46.485,46.485,0,0,1-4.1-15.617h0Zm214.769-91.323a96.911,96.911,0,0,1,.5,21.666,96.329,96.329,0,0,1-4.377,21.312,95.663,95.663,0,0,1-9.249,20.066,96.656,96.656,0,0,1-14.126,17.926c-2.091,2.094-4.3,4.107-6.558,5.985,2.228,1.852,4.434,3.867,6.558,5.988a96.551,96.551,0,0,1,14.244,18.124,95.471,95.471,0,0,1,9.269,20.3,96.414,96.414,0,0,1,4.3,21.547,96.814,96.814,0,0,1-.682,21.885,86.847,86.847,0,0,0,16.725-2.535,86.419,86.419,0,0,0,15.522-5.571,87.141,87.141,0,0,0,14.005-8.285,88.158,88.158,0,0,0,12.169-10.684,88.253,88.253,0,0,0,10.017-12.76,87.756,87.756,0,0,0,7.545-14.521,87.454,87.454,0,0,0,6.42-33.046,87.43,87.43,0,0,0-6.408-33.018,87.829,87.829,0,0,0-7.534-14.511,88.193,88.193,0,0,0-10-12.757,87.846,87.846,0,0,0-12.149-10.682,87.148,87.148,0,0,0-13.985-8.293,86.474,86.474,0,0,0-15.5-5.58,86.524,86.524,0,0,0-16.7-2.556Zm-338.192.06h0a85.939,85.939,0,0,0-31.846,8.386,87.284,87.284,0,0,0-13.815,8.333,87.788,87.788,0,0,0-12,10.679,87.916,87.916,0,0,0-9.867,12.712,87.4,87.4,0,0,0-7.433,14.433,87.459,87.459,0,0,0-6.317,32.793,87.48,87.48,0,0,0,6.328,32.822,87.883,87.883,0,0,0,7.444,14.443,88.049,88.049,0,0,0,9.884,12.715,88.008,88.008,0,0,0,12.017,10.679,87.335,87.335,0,0,0,13.835,8.328,85.9,85.9,0,0,0,31.889,8.354,96.494,96.494,0,0,1-.668-21.867,96.1,96.1,0,0,1,4.3-21.533,95.511,95.511,0,0,1,9.269-20.282,96.483,96.483,0,0,1,14.235-18.11c2.1-2.1,4.311-4.116,6.558-5.988-2.277-1.9-4.483-3.91-6.558-5.985a96.512,96.512,0,0,1-14.118-17.915,95.6,95.6,0,0,1-9.249-20.049,96.166,96.166,0,0,1-4.38-21.294,96.616,96.616,0,0,1,.486-21.651Zm-22.134-107.531c-1.9,0-3.145.021-3.166.031-.018.04-.092,5.467.1,12.563.317,11.5,1.079,17.856,1.663,21.162a168.007,168.007,0,0,0,10.448,35.225,199.726,199.726,0,0,0,18.854,34.8,221.813,221.813,0,0,0,26.966,32.611,222.049,222.049,0,0,0,32.612,26.966,199.266,199.266,0,0,0,34.807,18.852,174.459,174.459,0,0,0,23.349,7.87,46.408,46.408,0,0,1,4.308-15.369,46.785,46.785,0,0,1,8.944-12.725,46.847,46.847,0,0,1,12.6-9.108,46.438,46.438,0,0,1,15.283-4.509,174.73,174.73,0,0,0-7.749-22.895,199.138,199.138,0,0,0-18.854-34.8,221.742,221.742,0,0,0-26.966-32.615,222.159,222.159,0,0,0-32.612-26.966,199.491,199.491,0,0,0-34.8-18.851,167.663,167.663,0,0,0-35.222-10.448C-1962.085-11321.27-1978.441-11321.4-1983.23-11321.4Zm382.489,0c-4.786,0-21.135.13-30.586,1.8a167.684,167.684,0,0,0-35.219,10.448,199.3,199.3,0,0,0-34.807,18.854,221.744,221.744,0,0,0-32.612,26.966,221.544,221.544,0,0,0-26.966,32.612,199.429,199.429,0,0,0-18.854,34.8,175.1,175.1,0,0,0-7.7,22.716,46.432,46.432,0,0,1,15.833,4.055,46.771,46.771,0,0,1,13.133,8.946,46.783,46.783,0,0,1,9.392,12.794,46.439,46.439,0,0,1,4.61,15.6,174.791,174.791,0,0,0,21.472-7.372,199.112,199.112,0,0,0,34.8-18.852,221.8,221.8,0,0,0,32.612-26.963,222.144,222.144,0,0,0,26.966-32.611,199.257,199.257,0,0,0,18.851-34.808,167.843,167.843,0,0,0,10.451-35.222c1.056-5.975,1.487-14.808,1.663-21.165.2-7.131.117-12.528.1-12.564C-1597.618-11321.379-1598.711-11321.4-1600.741-11321.4Zm-265.164,24.451a96.688,96.688,0,0,1,18.345,1.761,96.037,96.037,0,0,1,17.8,5.274,95.812,95.812,0,0,1,16.707,8.794,97.022,97.022,0,0,1,15.07,12.311c2.1,2.1,4.115,4.307,5.985,6.555,1.882-2.262,3.9-4.467,5.988-6.555a96.675,96.675,0,0,1,15.067-12.311,95.6,95.6,0,0,1,16.71-8.794,95.9,95.9,0,0,1,17.8-5.274,96.954,96.954,0,0,1,18.348-1.758,96.967,96.967,0,0,1,13.487.946,86.589,86.589,0,0,0-2.619-16.63,86.23,86.23,0,0,0-5.62-15.43,87.062,87.062,0,0,0-8.307-13.913,87.914,87.914,0,0,0-10.679-12.089,88.309,88.309,0,0,0-12.739-9.947,87.849,87.849,0,0,0-14.48-7.493,87.463,87.463,0,0,0-32.928-6.371,87.455,87.455,0,0,0-32.925,6.371,87.8,87.8,0,0,0-14.48,7.49,88.1,88.1,0,0,0-12.736,9.948,88.172,88.172,0,0,0-10.682,12.085,87.167,87.167,0,0,0-8.308,13.916,86.15,86.15,0,0,0-5.62,15.427,86.513,86.513,0,0,0-2.619,16.627A96.725,96.725,0,0,1-1865.905-11296.948Z" transform="translate(2138 11470)" fill="#fff"/>
    <path id="패스_159" data-name="패스 159" d="M58.295-167.836h116c70.289,0,111.686-37.947,111.686-96.162,0-35.791-19.836-63.389-54.334-74.6,26.736-11.212,42.259-34.929,42.259-66.839,0-52.178-38.81-85.813-101.336-85.813H58.295Zm55.627-189.305V-445.11h54.334c31.048,0,48.728,19.4,48.728,43.984,0,26.736-18.542,43.984-50.884,43.984Zm0,143.165v-98.749h58.215c38.378,0,56.49,19.4,56.49,47.865,0,27.6-19.836,50.884-56.921,50.884Zm209.141,46.14h52.178V-291.6c0-30.617,13.368-53.471,41.4-53.471,30.185,0,33.635,24.148,34.066,24.148H488.22v-29.323c-3.881-21.992-21.561-39.241-53.9-39.241-29.754,0-49.59,14.661-60.371,33.635l-3.019-28.46H323.063Zm186.287,0h52.178V-384.308H509.35Zm-1.725-261.319h55.627v-53.04H507.625ZM702.536-162.661c37.947,0,56.058-18.111,64.252-34.066v-28.892H730.565c0,2.156-2.587,18.974-25.873,18.974-22.423,0-30.617-14.23-30.617-39.241v-94.868h85.381v-43.553H674.076v-54.334H626.21l-3.019,54.334h-35.36v43.553H621.9v98.318C621.9-191.553,649.927-162.661,702.536-162.661Zm144.889,0c34.929,0,55.2-18.542,65.977-34.929l4.743,29.754h44.847V-300.651c0-58.646-31.91-88.831-93.143-88.831-62.527,0-82.363,38.81-82.363,38.81v28.46h37.085S835.783-345.5,868.555-345.5c29.323,0,41.828,14.661,41.828,43.553V-290.3a203.752,203.752,0,0,0-45.278-5.175c-62.958,0-90.125,27.167-90.125,65.545C774.981-192.846,799.129-162.661,847.425-162.661Zm12.937-41.4c-21.561,0-33.635-8.624-33.635-28.46,0-14.661,9.056-28.46,40.1-28.46,25.442,0,43.553,5.175,43.553,5.175v10.349C910.384-227.344,892.7-204.058,860.362-204.058Zm147.908,36.222h52.178V-292.889c0-24.579,12.074-51.315,49.159-51.315,31.048,0,43.122,21.13,43.122,51.315v125.053h52.609V-299.358c0-49.159-21.561-90.125-80.207-90.125-34.929,0-55.627,18.542-65.977,34.066l-3.018-28.892H1008.27Zm242.345,0h52.177V-292.889c0-24.579,12.074-51.315,49.159-51.315,31.048,0,43.122,21.13,43.122,51.315v125.053h52.609V-299.358c0-49.159-21.561-90.125-80.207-90.125-34.929,0-55.627,18.542-65.976,34.066l-3.019-28.892h-47.865Zm242.345,0h52.177V-384.308H1492.96Zm-1.725-261.319h55.627v-53.04h-55.627Zm158.689,266.493c34.929,0,55.2-18.542,65.976-34.929l4.744,29.754h44.847V-300.651c0-58.646-31.91-88.831-93.143-88.831-62.526,0-82.363,38.81-82.363,38.81v28.46h37.085s11.212-23.286,43.984-23.286c29.323,0,41.828,14.661,41.828,43.553V-290.3a203.747,203.747,0,0,0-45.278-5.175c-62.958,0-90.125,27.167-90.125,65.545C1577.479-192.846,1601.628-162.661,1649.924-162.661Zm12.937-41.4c-21.561,0-33.635-8.624-33.635-28.46,0-14.661,9.056-28.46,40.1-28.46,25.442,0,43.553,5.175,43.553,5.175v10.349C1712.882-227.344,1695.2-204.058,1662.861-204.058Z" transform="translate(793.343 654.456)" fill="#fff"/>
  </g>
</svg>
